<?xml version="1.0" encoding="iso-8859-1"?>
<!-- Generator: Adobe Illustrator 19.0.0, SVG Export Plug-In . SVG Version: 6.00 Build 0)  -->
<svg version="1.1" id="Layer_1" xmlns="http://www.w3.org/2000/svg" xmlns:xlink="http://www.w3.org/1999/xlink" x="0px" y="0px"
	 viewBox="0 0 511.999 511.999" style="enable-background:new 0 0 511.999 511.999;" xml:space="preserve">
<path style="fill:#59ACB2;" d="M183.025,391.237c1.824-1.188,3.678-2.334,5.562-3.435
	C186.703,388.903,184.849,390.048,183.025,391.237z"/>
<polygon style="fill:#549094;" points="183.023,391.238 183.023,391.238 183.025,391.237 "/>
<path style="fill:#937EA3;" d="M183.023,391.238c-27.229,17.745-47.597,45.131-56.269,77.316
	c31.213,18.24,66.621,30.077,104.428,33.71l88.4-85.636L183.023,391.238z"/>
<g>
	<path style="fill:#796093;" d="M328.978,391.238L328.978,391.238c-0.001,0-0.001-0.001-0.002-0.001
		c-1.824-1.188-3.678-2.334-5.562-3.435h-67.414h-67.414c-1.884,1.101-3.738,2.247-5.562,3.435c-0.001,0-0.001,0.001-0.002,0.001
		c9.639,13.187,22.761,23.661,38.013,30.073c6.171,2.595,10.146,8.679,10.146,10.355v70.599c9.591,0.97,16.445,1.194,24.819,1.194
		c1.771,0,3.536-0.023,5.298-0.059c45.144-0.916,87.418-13.497,123.949-34.845C376.575,436.37,356.208,408.983,328.978,391.238z"/>
	<path style="fill:#796093;" d="M157.558,483.87c8.782,3.654,17.809,6.836,27.053,9.51v-60.323
		C171.091,446.734,161.472,464.273,157.558,483.87z"/>
</g>
<path style="fill:#E8C6B3;" d="M170.739,459.168c-8.531-9.559-18.41-17.885-29.344-24.68c-6.382,10.551-11.355,22.049-14.642,34.242
	c9.857,5.76,20.136,10.877,30.774,15.304L170.739,459.168z"/>
<path style="fill:#DFB296;" d="M428.897,196.883c-2.297,0-4.552,0.172-6.766,0.472c-5.673,0.77-11.05,2.474-15.958,4.972
	c-1.42-5.372-3.094-10.696-4.982-15.956c-8.935-24.908-22.939-48.295-40.625-67.558c-27.682-30.151-64.346-50.207-104.564-50.207
	c-65.912,0-122.282,53.866-145.201,117.761c-1.887,5.26-3.551,10.588-4.97,15.96l4.125,126.408
	c4.182,17.046,9.692,31.508,16.598,38.188c25.436,24.605,86.131,36.32,129.721,36.32s103.74-11.716,129.177-36.32
	c11.476-11.1,19.104-43.678,23.173-73.926c6.202,2.743,13.058,4.278,20.275,4.278c27.723,0,50.196-22.473,50.196-50.196
	S456.619,196.883,428.897,196.883z"/>
<g>
	<path style="fill:#E8C6B3;" d="M359.841,304.805c-1.67,3.073-3.447,6.08-5.313,9.025
		C356.413,311.369,358.183,308.321,359.841,304.805z"/>
	<path style="fill:#E8C6B3;" d="M375.997,225.364c-0.538-0.35-1.138-0.62-1.787-0.784c-2.726-0.689-5.293-1.898-7.281-3.886
		l-42.114-42.112c-14.405-14.405-32.593-23.809-52.594-27.196c-0.059-0.01-0.117-0.02-0.176-0.03
		c-10.843-1.876-21.879-1.875-32.722,0c-0.058,0.01-0.116,0.02-0.174,0.03c-20.002,3.388-38.19,12.792-52.595,27.196l-44.109,44.11
		c-0.6,0.599-1.273,1.184-1.997,1.736c-0.038,0.029-0.076,0.058-0.114,0.086c-5.73,4.313-13.898,3.131-18.432-2.426l-10.076-12.348
		l-5.999-7.412c0,0-0.631-0.32-0.843-0.425c-7.308-3.617-15.668-5.394-24.468-4.953c-25.763,1.293-46.593,22.397-47.572,48.174
		c-1.088,28.614,21.787,52.152,50.159,52.152c7.217,0,14.073-1.535,20.275-4.278c1.621,12.046,3.807,24.456,6.575,35.737
		c5.595,3.074,11.798,5.851,18.422,8.331c28.738,10.765,65.375,15.981,94.434,15.981c43.59,0,103.74-11.716,129.177-36.32
		c0.87-0.842,1.717-1.818,2.542-2.897c1.866-2.945,3.643-5.951,5.313-9.025c12.028-22.133,18.86-47.497,18.86-74.458
		C378.7,228.291,377.646,226.438,375.997,225.364z"/>
</g>
<circle style="fill:#CE9276;" cx="428.895" cy="247.074" r="16.732"/>
<circle style="fill:#DFB296;" cx="83.102" cy="247.074" r="16.732"/>
<path style="fill:#9E7325;" d="M419.132,146.401c-3.553-16.076-9.683-31.536-18.367-45.672
	c-26.802-43.635-70.649-76.527-120.394-90.696c-27.663-7.886-55.085,13.281-55.085,42.391L95.177,139.783
	c-7.652,21.141-3.101,44.758,10.653,62.544l8.317,4.486c3.442,1.747,7.617,1.081,10.347-1.649l44.645-44.371
	c46.825-46.537,121.798-47.514,169.805-3.015l0.001,0.001l0,0c1.151,1.067,2.287,2.161,3.407,3.281l44.104,44.104
	c2.73,2.73,6.905,3.394,10.347,1.649l8.843-4.486l1.101-1.423C418.696,185.445,423.347,165.478,419.132,146.401z"/>
<g>
	<path style="fill:#BB9430;" d="M92.113,171.638c14.133,7.494,31.498,4.915,42.845-6.361l19.438-19.319
		c29.902-29.718,69.78-43.516,108.95-41.423c6.513,0.348,9.854-7.699,5.071-12.133l-43.13-39.98
		c-39.409,0-75.086,16.184-100.906,42.357c-5.633,5.706-10.797,11.886-15.428,18.478c-5.785,8.234-10.387,17.162-13.776,26.524
		C91.43,150.133,90.49,161.076,92.113,171.638L92.113,171.638z"/>
	<path style="fill:#BB9430;" d="M361.437,86.647c-21.711-35.346-55.84-63.205-95.198-78.191
		c-15.974,0.893-30.184,10.824-36.88,25.329l28.14,26.084c28.828,26.722,58.904,52.034,89.271,76.995
		c3.573,2.937,7.035,6.073,10.37,9.409c7.976,7.976,21.769,2.396,21.721-8.882c-0.014-3.409-0.389-6.832-1.138-10.218
		C374.515,112.649,369.036,99.015,361.437,86.647z"/>
</g>
<path style="fill:#CE9276;" d="M344.306,455.868c4.713,8.696,8.186,18.162,10.167,28.166c0.64-0.267,1.281-0.533,1.917-0.805
	c9.955-4.24,19.592-9.085,28.856-14.499c-3.286-12.193-8.261-23.69-14.643-34.241C360.949,440.489,352.115,447.684,344.306,455.868z
	"/>
<path d="M304.223,220.172c1.43-4.393-0.972-9.114-5.365-10.544c-8.355-2.719-15.78-8.113-20.913-15.185
	c-1.636-2.255-4.19-3.453-6.778-3.453c-1.703,0-3.422,0.519-4.906,1.595c-3.74,2.714-4.572,7.945-1.858,11.684
	c7.294,10.054,17.417,17.408,29.274,21.268C298.067,226.967,302.793,224.566,304.223,220.172z"/>
<path d="M247.596,204.266c2.714-3.74,1.883-8.971-1.857-11.684c-1.485-1.078-3.204-1.596-4.907-1.596
	c-2.588,0-5.14,1.198-6.778,3.452c-5.213,7.182-12.441,12.433-20.905,15.184c-4.394,1.428-6.8,6.147-5.371,10.542
	c1.428,4.395,6.153,6.799,10.541,5.371C230.168,221.685,240.292,214.33,247.596,204.266z"/>
<circle cx="200.225" cy="247.074" r="16.732"/>
<circle cx="311.771" cy="247.074" r="16.732"/>
<path d="M281.098,263.811c0-4.62-3.746-8.366-8.366-8.366c-4.62,0-8.366,3.746-8.366,8.366c0,4.614-3.752,8.366-8.366,8.366
	c-4.614,0-8.366-3.752-8.366-8.366c0-4.62-3.746-8.366-8.366-8.366c-4.62,0-8.366,3.746-8.366,8.366
	c0,13.84,11.258,25.098,25.098,25.098C269.84,288.908,281.098,277.65,281.098,263.811z"/>
<path d="M428.897,188.517c-1.864,0-3.708,0.109-5.538,0.28c5.772-13.901,7.24-29.276,3.943-44.201
	c-3.813-17.255-10.341-33.487-19.407-48.246c-27.77-45.212-73.415-79.606-125.229-94.362c-15.565-4.438-31.931-1.365-44.905,8.427
	c-11.05,8.339-18.167,20.379-20.223,33.84c-37.469,1.903-72.414,17.587-99.11,44.648c-5.952,6.028-11.443,12.604-16.32,19.545
	c-6.138,8.737-11.117,18.321-14.797,28.487c-4.132,11.414-5.331,23.854-3.469,35.974c0.702,4.567,4.973,7.698,9.539,6.998
	c4.567-0.702,7.7-4.973,6.998-9.539c-1.438-9.358-0.516-18.949,2.664-27.738c3.176-8.773,7.467-17.036,12.754-24.562
	c4.345-6.183,9.235-12.04,14.539-17.412c25.36-25.708,59.08-39.867,94.95-39.867h8.366v-8.366c0-11.406,5.171-21.848,14.188-28.654
	c8.746-6.602,19.767-8.675,30.239-5.691c47.834,13.624,89.954,45.345,115.558,87.029c8.087,13.167,13.918,27.668,17.326,43.099
	c3.665,16.589-0.284,33.93-10.833,47.577l-1.101,1.423c-2.828,3.654-2.158,8.908,1.497,11.736c1.524,1.179,3.325,1.75,5.114,1.75
	c0.064,0,0.126-0.009,0.19-0.011c1.388,0.058,2.809-0.224,4.136-0.899c5.913-3.008,12.282-4.533,18.932-4.533
	c23.065,0,41.83,18.764,41.83,41.83s-18.764,41.83-41.83,41.83c-3.801,0-7.526-0.512-11.133-1.511
	c1.749-14.695,2.767-29.379,2.767-40.318c0-4.614,3.752-8.366,8.366-8.366s8.366,3.752,8.366,8.366c0,4.62,3.745,8.366,8.366,8.366
	c4.621,0,8.366-3.746,8.366-8.366c0-13.839-11.259-25.098-25.098-25.098c-13.838,0-25.098,11.258-25.098,25.098
	c0,11.906-1.296,28.655-3.467,44.801v0.001c-4.674,34.75-12.606,61.201-20.7,69.028c-22.808,22.063-80.581,33.968-123.36,33.968
	c-0.046,0-0.09,0.006-0.136,0.007c-0.046-0.001-0.09-0.007-0.136-0.007c-4.62,0-8.366,3.746-8.366,8.366v100.391
	c0,4.62,3.746,8.366,8.366,8.366c4.621,0,8.366-3.746,8.366-8.366v-92.151c20.802-0.617,44.113-3.586,65.709-9.109
	c10.634,7.793,19.909,17.145,27.542,27.67c-4.63,3.103-9.073,6.482-13.312,10.108c-3.416-4.738-7.214-9.232-11.402-13.42
	c-3.267-3.267-8.564-3.268-11.831,0c-3.268,3.267-3.268,8.563-0.001,11.831c12.948,12.948,21.661,29.236,25.196,47.101
	c0.789,3.984,4.284,6.744,8.199,6.744c0.538,0,1.085-0.052,1.633-0.161c4.532-0.897,7.479-5.298,6.582-9.831
	c-1.922-9.716-5.153-19.028-9.554-27.748c4.23-3.78,8.705-7.274,13.399-10.446c4.532,8.415,8.129,17.357,10.643,26.685
	c1.006,3.732,4.385,6.192,8.073,6.192c0.721,0,1.453-0.094,2.182-0.29c4.462-1.202,7.103-5.794,5.901-10.254
	c-7.332-27.212-22.664-51.587-43.807-70.055c16.886-5.977,31.642-13.787,41.748-23.563c12.665-12.249,20.029-42.426,24.193-68.848
	c4.377,1.033,8.869,1.554,13.438,1.554c32.29,0,58.562-26.27,58.562-58.562S461.187,188.517,428.897,188.517z"/>
<path d="M214.805,391.735c-37.85-5.526-67.897-16.761-82.437-30.826c-8.093-7.828-16.024-34.278-20.698-69.028
	c-2.172-16.143-3.468-32.892-3.468-44.802c0-13.839-11.258-25.098-25.098-25.098s-25.098,11.258-25.098,25.098
	c0,4.62,3.746,8.366,8.366,8.366s8.366-3.746,8.366-8.366c0-4.614,3.752-8.366,8.366-8.366s8.366,3.752,8.366,8.366
	c0,10.942,1.02,25.625,2.767,40.318c-3.607,0.999-7.332,1.511-11.133,1.511c-23.065,0-41.83-18.764-41.83-41.83
	s18.764-41.83,41.83-41.83c6.649,0,13.019,1.526,18.93,4.533c0.004,0.002,0.01,0.004,0.015,0.007l8.838,4.484
	c2.493,1.265,5.177,1.881,7.836,1.881c4.474,0,8.879-1.741,12.193-5.055l44.645-44.371c44.566-44.293,116.969-44.182,161.399,0.249
	l27.55,27.55c3.268,3.267,8.565,3.267,11.832,0s3.267-8.564,0-11.831l-27.55-27.55c-50.935-50.934-133.936-51.06-185.027-0.286
	L119.1,199.25c-0.172,0.17-0.429,0.212-0.646,0.103l-8.843-4.486c-0.007-0.003-0.012-0.006-0.019-0.009
	c-8.278-4.206-17.189-6.339-26.491-6.339c-32.291,0-58.562,26.27-58.562,58.562s26.27,58.562,58.562,58.562
	c4.569,0,9.061-0.52,13.437-1.554c4.165,26.423,11.529,56.599,24.193,68.848c10.797,10.444,26.081,18.04,41.783,23.541
	c-21.15,18.481-36.529,42.935-43.843,70.078c-1.202,4.461,1.44,9.052,5.902,10.254c0.728,0.196,1.461,0.29,2.182,0.29
	c3.689,0,7.068-2.46,8.073-6.192c2.047-7.594,4.832-14.938,8.247-21.965c4.606,3.562,8.958,7.447,13.037,11.622
	c-3.01,6.983-5.301,14.295-6.796,21.852c-0.897,4.532,2.05,8.934,6.582,9.831c0.549,0.108,1.094,0.161,1.633,0.161
	c3.913,0,7.409-2.76,8.197-6.744c3.535-17.866,12.248-34.154,25.195-47.101c3.267-3.267,3.267-8.564,0-11.831
	c-3.267-3.267-8.564-3.267-11.831,0c-5.633,5.633-10.582,11.807-14.803,18.408c-4.068-3.865-8.356-7.48-12.844-10.836
	c8.17-12.298,18.493-23.176,30.559-32.004c11.374,2.879,22.051,4.775,30.38,5.991c0.41,0.06,0.817,0.089,1.219,0.089
	c4.086,0,7.66-2.997,8.268-7.158C222.541,396.649,219.377,392.403,214.805,391.735z"/>
<g>
</g>
<g>
</g>
<g>
</g>
<g>
</g>
<g>
</g>
<g>
</g>
<g>
</g>
<g>
</g>
<g>
</g>
<g>
</g>
<g>
</g>
<g>
</g>
<g>
</g>
<g>
</g>
<g>
</g>
</svg>
