<?xml version="1.0" encoding="iso-8859-1"?>
<!-- Generator: Adobe Illustrator 19.0.0, SVG Export Plug-In . SVG Version: 6.00 Build 0)  -->
<svg version="1.1" id="Layer_1" xmlns="http://www.w3.org/2000/svg" xmlns:xlink="http://www.w3.org/1999/xlink" x="0px" y="0px"
	 viewBox="0 0 512.002 512.002" style="enable-background:new 0 0 512.002 512.002;" xml:space="preserve">
<path style="fill:#868075;" d="M320.09,412.591l-137.956-27.313c-1.93,1.128-3.83,2.301-5.703,3.514
	c-7.832,5.069-15.146,10.866-21.854,17.291l23.201,94.878c24.832,7.184,51.075,11.042,78.222,11.042
	c20.988,0,41.437-2.303,61.111-6.667c5.774-1.281,11.478-2.744,17.111-4.374c8.128-2.352,16.102-5.061,23.908-8.109
	c1.934-0.754,3.856-1.53,5.768-2.326c0.702-0.292,1.403-0.584,2.101-0.882c10.908-4.646,21.467-9.955,31.618-15.886L320.09,412.591z
	"/>
<path style="fill:#706B63;" d="M387.379,446.76c-10.113-20.326-24.801-37.973-42.719-51.592c-2.85-2.166-5.782-4.23-8.79-6.187
	c-1.969-1.281-3.97-2.517-6.002-3.703H182.135c-2.033,1.187-4.033,2.422-6.002,3.703c18.016,24.563,47.073,40.521,79.868,40.521
	c16.117,0,31.33-3.857,44.777-10.692c4.806-2.442,10.569-2.023,15.087,0.917c0.093,0.06,0.186,0.121,0.279,0.182
	c11.279,7.385,18.079,19.955,18.079,33.436v47.616c10.139-2.933,20.042-6.425,29.675-10.434l0,0l0,0
	c4.349-1.81,8.644-3.725,12.879-5.743c0.027-0.013,0.055-0.026,0.082-0.038c1.331-0.634,2.655-1.281,3.973-1.935
	c0.1-0.05,0.202-0.098,0.302-0.148c1.238-0.616,2.469-1.244,3.696-1.877c0.174-0.089,0.348-0.176,0.522-0.266
	c1.146-0.594,2.284-1.2,3.421-1.81c0.246-0.132,0.493-0.26,0.738-0.392c1.084-0.585,2.161-1.184,3.238-1.783
	c0.284-0.159,0.571-0.313,0.854-0.472c1.318-0.741,2.628-1.492,3.932-2.254c0.027-0.016,0.055-0.032,0.083-0.048
	C395.083,464.352,391.636,455.318,387.379,446.76z"/>
<path style="fill:#868075;" d="M154.577,406.082c-19.015,18.215-33.139,41.493-40.194,67.676
	c10.801,6.312,22.064,11.918,33.72,16.769l29.677-55.854C171.259,424.183,163.45,414.583,154.577,406.082z"/>
<path style="fill:#F8E5B5;" d="M162.579,463.28c-9.348-10.474-20.172-19.597-32.153-27.042c-6.992,11.561-12.442,24.16-16.043,37.52
	c10.801,6.312,22.064,11.918,33.72,16.769L162.579,463.28z"/>
<path style="fill:#ECCE93;" d="M352.758,459.664c5.164,9.528,8.97,19.9,11.141,30.862c0.702-0.292,1.403-0.584,2.101-0.882
	c10.908-4.646,21.467-9.955,31.618-15.886c-3.601-13.36-9.052-25.958-16.044-37.518
	C370.993,442.814,361.314,450.698,352.758,459.664z"/>
<path style="fill:#706B63;" d="M148.102,490.527c9.634,4.01,19.536,7.501,29.677,10.434v-66.288
	C162.924,449.697,152.369,468.981,148.102,490.527z"/>
<path style="fill:#F8E5B5;" d="M257.223,68.337l-156.499,86.151c-3.702,8.936-6.815,18.093-9.268,27.369
	c-7.478-3.805-15.934-5.964-24.9-5.964c-30.376,0-55,24.624-55,55s24.624,55,55,55c6.743,0,13.194-1.23,19.161-3.453
	c0.205-0.077,0.411-0.153,0.614-0.231c0.906-0.35,1.803-0.717,2.684-1.113c0.056-0.024,0.11-0.051,0.165-0.077
	c0.864-0.391,1.716-0.807,2.556-1.241c0.072-0.038,0.148-0.068,0.22-0.106c11.548,38.892,36.548,71.995,69.605,93.92l33.734,12.115
	l115.093-0.815l132.611-157.055L257.223,68.337z"/>
<path style="fill:#ECCE93;" d="M451.303,176.177c-1.852-0.188-3.73-0.285-5.632-0.285c-8.965,0-17.422,2.158-24.9,5.964
	c-1.681-6.358-3.674-12.66-5.951-18.872c-19.155-52.282-58.737-98.222-107.772-117.711c-16.058-6.381-33.123-9.935-50.821-9.935
	c-62.603,0-117.347,44.349-147.175,101.761c-2.95,5.678-5.655,11.485-8.102,17.389l-5.421,11.07
	c-2.48,5.065-3.762,10.633-3.747,16.273l0,0c0.028,10.628,5.867,20.574,15.422,25.229c14.436,7.033,31.626,0.273,37.565-14.361
	c13.184-32.482,31.435-52.427,52.782-57.679c16.985-4.182,34.063,1.822,42.74,9.17c28.69,24.298,74.301,57.498,108.421,71.101
	c10.963,4.371,21.247,6.413,32.938,6.413l0,0c4.424,0,9.06,3.955,8.692,8.364l-0.727,8.728
	c-13.215,81.363-83.799,143.478-168.895,143.47c-18.826-0.001-38.881-3.053-58.929-8.67c27.065,17.951,59.527,28.41,94.438,28.41
	c77.551,0,143.041-51.597,164.044-122.331c8.574,4.473,18.464,6.77,28.948,6.109c27.564-1.74,49.832-24.172,51.365-51.749
	C502.244,204.156,480.046,179.1,451.303,176.177z"/>
<path style="opacity:0.2;fill:#644D2D;enable-background:new    ;" d="M390.45,231.137c0-0.081-0.005-0.16-0.005-0.24l0,0v-0.006
	c0.172-3.282-1.5-6.463-4.422-7.966c-6.965-3.584-13.911,1.38-13.911,7.966c0,0.002,0,0.004,0,0.006l0,0
	c0,20.253-16.419,36.66-36.673,36.66h-15.278c-10.122,0-18.327-8.206-18.327-18.327v-0.012c0-15.181-12.307-27.488-27.488-27.488
	h-36.679c-15.187,0-27.5,12.313-27.5,27.5c0,10.122-8.206,18.327-18.327,18.327h-15.278c-20.253,0-36.673-16.407-36.673-36.66l0,0
	v-0.006c0.172-3.282-1.5-6.463-4.422-7.966c-6.965-3.584-13.911,1.38-13.911,7.966c0,0.002,0,0.004,0,0.006l0,0
	c0,21.297-12.113,39.745-29.82,48.88c0.072-0.038,0.148-0.068,0.22-0.106c11.548,38.892,36.548,71.995,69.605,93.92
	c27.064,17.951,59.527,28.41,94.437,28.41c77.551,0,143.041-51.597,164.044-122.331c0.072,0.038,0.148,0.07,0.22,0.106
	C402.625,270.678,390.54,252.333,390.45,231.137z"/>
<circle style="fill:#ECCE93;" cx="66.55" cy="230.892" r="18.333"/>
<circle style="fill:#E1B872;" cx="445.439" cy="230.892" r="18.333"/>
<polygon style="fill:#E2C35A;" points="208.324,87.788 208.321,87.787 208.318,87.788 "/>
<path style="fill:#D9B43A;" d="M443.878,149.826c-11.677,35.301-50.672,53.688-85.211,39.918
	c-32.983-13.15-77.447-46.736-100.833-66.543c-28.78-24.372-100.189-35.911-138.772,59.153c-5.212,12.839-18.665,3.981-27.743-0.793
	c0,0-11.532-86.229,65.875-106.598c0,0-18.222-17.93,9.583-45.735s99.204-28.518,159.704,9.371S443.878,149.826,443.878,149.826
	L443.878,149.826z"/>
<path style="fill:#BB9430;" d="M407.556,153.547c-32.983-13.15-77.447-46.738-100.833-66.543
	c-20.366-17.248-62.079-28.056-98.402,0.781c-5.967-3.304-13.498-6.314-22.965-8.644c-7.94-1.953-17.236-3.43-28.16-4.181
	c-53.069,13.966-64.333,58.883-66.171,85.75c-0.842,12.321,0.296,20.849,0.296,20.849c1.947,1.024,4.096,2.234,6.32,3.379
	c8.15,4.195,17.329,7.5,21.423-2.586c18.33-45.162,44.067-66.254,69.124-73.35c14.388-4.075,28.549-3.541,40.955-0.284
	c11.468,3.01,21.437,8.337,28.693,14.482c23.386,19.805,67.85,53.393,100.833,66.543c5.929,2.364,11.989,3.758,18.02,4.305
	c29.1,2.633,57.514-14.98,67.188-44.217C431.588,155.393,418.728,158.002,407.556,153.547z"/>
<path d="M467.616,170.661c-4.757-1.753-10.021,0.686-11.77,5.435c-1.75,4.751,0.684,10.02,5.434,11.769
	c17.943,6.606,29.998,23.897,29.998,43.027c0,25.273-20.56,45.833-45.833,45.833c-4.998,0-9.841-0.802-14.48-2.355
	c3.514-14.183,5.313-28.783,5.313-43.478c0-5.055,4.112-9.167,9.167-9.167s9.167,4.112,9.167,9.167c0,5.062,4.103,9.167,9.167,9.167
	s9.167-4.104,9.167-9.167c0-15.164-12.337-27.5-27.5-27.5c-15.163,0-27.5,12.336-27.5,27.5c0,14.538-1.937,28.975-5.757,42.91
	c-0.155,0.567-0.248,1.135-0.293,1.701c-0.254,0.497-0.475,1.014-0.637,1.56c-20.24,68.166-84.084,115.774-155.256,115.774
	s-135.019-47.608-155.257-115.774c-0.161-0.545-0.383-1.062-0.637-1.56c-0.045-0.566-0.138-1.134-0.293-1.701
	c-3.819-13.936-5.757-28.373-5.757-42.91c0-15.164-12.337-27.5-27.5-27.5s-27.5,12.336-27.5,27.5c0,5.062,4.103,9.167,9.167,9.167
	s9.167-4.104,9.167-9.167c0-5.055,4.112-9.167,9.167-9.167c5.055,0,9.167,4.112,9.167,9.167c0,14.695,1.798,29.295,5.313,43.478
	c-4.638,1.553-9.481,2.355-14.48,2.355c-25.273,0-45.833-20.56-45.833-45.833s20.56-45.833,45.833-45.833
	c7.266,0,14.229,1.662,20.693,4.941c0.691,0.364,1.407,0.75,2.144,1.146c7.401,3.993,17.54,9.46,27.026,6.044
	c3.48-1.252,8.235-4.244,11.136-11.39c15.486-38.154,38.097-61.871,65.388-68.587c24.955-6.145,47.363,3.156,58.967,12.982
	c20.527,17.382,49.884,39.426,76.769,54.862h-29.902c-5.064,0-9.167,4.104-9.167,9.167c0,5.062,4.103,9.167,9.167,9.167h36.667
	c5.064,0,9.167-4.104,9.167-9.167c0-0.243-0.018-0.482-0.037-0.72c3.674,1.778,7.256,3.382,10.697,4.753
	c23.621,9.416,50.045,6.046,70.688-9.015c12.531-9.143,21.736-21.777,26.619-36.539c0.959-2.899,0.412-6.085-1.459-8.498
	c-2.364-3.047-58.596-75.068-119.773-113.38c-29.671-18.583-63.989-29.488-96.634-30.712c-31.704-1.186-58.846,7.058-74.417,22.629
	c-12.079,12.079-18.179,24.367-18.13,36.522c0.016,3.938,0.687,7.404,1.649,10.358c-33.889,12.855-55.357,41.074-60.908,80.574
	c-0.705,5.014,2.788,9.649,7.801,10.353c5.018,0.709,9.649-2.788,10.353-7.801c3.565-25.361,16.601-57.904,58.466-68.922
	c3.255-0.857,5.92-3.293,6.716-6.563c0.79-3.244-0.108-6.525-2.559-8.78c-1.418-1.58-10.231-12.968,9.577-32.775
	c23.92-23.923,90.734-25.431,148.357,10.658c50.441,31.589,99.164,89.482,111.843,105.11c-3.928,9.167-10.19,17.038-18.306,22.959
	c-15.517,11.323-35.366,13.862-53.092,6.796c-30.016-11.968-71.716-42.506-98.304-65.022
	c-14.898-12.617-43.527-24.589-75.196-16.795c-23.176,5.703-55.521,24.124-77.993,79.494c-0.224,0.55-0.416,0.875-0.535,1.047
	c-2.497,0.17-9.06-3.39-11.939-4.943c-0.815-0.44-1.608-0.867-2.372-1.269c-0.035-0.02-0.073-0.038-0.109-0.056
	c-9.08-4.619-18.855-6.961-29.057-6.961c-35.381,0-64.167,28.784-64.167,64.167s28.786,64.167,64.167,64.167
	c6.714,0,13.413-1.069,19.785-3.133c11.77,32.594,33.126,61.699,60.895,82.742c5.482,4.153,11.152,7.958,16.98,11.423
	c-28.462,20.852-49.5,51.201-58.684,85.28c-1.318,4.889,1.577,9.92,6.466,11.236c0.798,0.215,1.601,0.318,2.391,0.318
	c4.042,0,7.743-2.695,8.844-6.783c2.239-8.31,5.285-16.364,9.041-24.064c5.044,3.901,9.813,8.157,14.282,12.732
	c-3.298,7.651-5.808,15.663-7.447,23.943c-0.983,4.966,2.246,9.789,7.212,10.771c0.601,0.119,1.199,0.176,1.789,0.176
	c4.288,0,8.119-3.024,8.983-7.39c3.873-19.575,13.419-37.422,27.607-51.609c3.58-3.58,3.58-9.384-0.001-12.963
	c-3.579-3.581-9.383-3.58-12.963,0c-6.172,6.172-11.595,12.937-16.22,20.17c-4.451-4.229-9.143-8.186-14.056-11.859
	c10.71-16.094,24.771-29.964,41.235-40.377c22.851,10.202,47.651,15.495,73.304,15.495s50.453-5.293,73.304-15.495
	c14.855,9.395,27.755,21.6,38.002,35.719c-5.06,3.393-9.916,7.086-14.549,11.05c-3.742-5.192-7.904-10.116-12.494-14.705
	c-3.58-3.58-9.384-3.58-12.963,0c-3.581,3.58-3.581,9.383-0.001,12.963c14.188,14.188,23.734,32.034,27.608,51.609
	c0.864,4.366,4.695,7.39,8.983,7.39c0.589,0,1.189-0.057,1.789-0.176c4.966-0.983,8.195-5.806,7.212-10.771
	c-2.106-10.646-5.647-20.849-10.468-30.404c4.626-4.134,9.52-7.955,14.653-11.425c4.993,9.233,8.947,19.035,11.692,29.22
	c1.101,4.09,4.803,6.783,8.844,6.783c0.79,0,1.593-0.103,2.391-0.318c4.889-1.318,7.783-6.348,6.466-11.236
	c-9.183-34.079-30.222-64.428-58.684-85.28c5.829-3.465,11.499-7.27,16.98-11.423c27.77-21.043,49.125-50.148,60.895-82.742
	c6.373,2.063,13.07,3.133,19.785,3.133c35.381,0,64.167-28.784,64.167-64.167C509.611,204.114,492.735,179.909,467.616,170.661z"/>
<path d="M265.167,249.225c0,5.055-4.112,9.167-9.167,9.167c-5.055,0-9.167-4.112-9.167-9.167c0-5.062-4.103-9.167-9.167-9.167
	s-9.167,4.104-9.167,9.167c0,15.164,12.337,27.5,27.5,27.5s27.5-12.336,27.5-27.5c0-5.062-4.103-9.167-9.167-9.167
	S265.167,244.163,265.167,249.225z"/>
<circle cx="194.896" cy="230.892" r="18.333"/>
<circle cx="317.105" cy="230.892" r="18.333"/>
<path d="M222.39,194.225c0-5.062-4.103-9.167-9.167-9.167h-36.667c-5.064,0-9.167,4.104-9.167,9.167
	c0,5.062,4.103,9.167,9.167,9.167h36.667C218.287,203.392,222.39,199.288,222.39,194.225z"/>
<g>
</g>
<g>
</g>
<g>
</g>
<g>
</g>
<g>
</g>
<g>
</g>
<g>
</g>
<g>
</g>
<g>
</g>
<g>
</g>
<g>
</g>
<g>
</g>
<g>
</g>
<g>
</g>
<g>
</g>
</svg>
