<?xml version="1.0" encoding="UTF-8"?>
<svg xmlns="http://www.w3.org/2000/svg" version="1.1" width="100" height="100" viewBox="0 0 100 100"><rect x="0" y="0" width="100" height="100" fill="#ffffff"/><g transform="scale(4.762)"><g transform="translate(0,0)"><path fill-rule="evenodd" d="M10 0L10 1L8 1L8 2L10 2L10 3L8 3L8 4L9 4L9 5L8 5L8 7L9 7L9 8L6 8L6 9L5 9L5 8L0 8L0 11L3 11L3 10L4 10L4 11L9 11L9 12L8 12L8 15L9 15L9 14L10 14L10 16L8 16L8 21L12 21L12 20L14 20L14 21L16 21L16 20L14 20L14 18L16 18L16 15L15 15L15 16L14 16L14 14L11 14L11 12L12 12L12 13L13 13L13 12L14 12L14 13L15 13L15 14L17 14L17 13L15 13L15 12L14 12L14 10L17 10L17 11L16 11L16 12L19 12L19 13L20 13L20 14L19 14L19 15L17 15L17 16L19 16L19 17L18 17L18 18L17 18L17 19L18 19L18 20L17 20L17 21L18 21L18 20L19 20L19 21L20 21L20 20L19 20L19 17L21 17L21 15L20 15L20 14L21 14L21 12L20 12L20 10L21 10L21 9L20 9L20 8L19 8L19 9L18 9L18 8L17 8L17 9L16 9L16 8L15 8L15 9L14 9L14 8L13 8L13 10L11 10L11 9L12 9L12 7L13 7L13 5L11 5L11 6L10 6L10 7L9 7L9 5L10 5L10 3L11 3L11 4L12 4L12 3L13 3L13 0L12 0L12 2L11 2L11 0ZM11 6L11 7L10 7L10 8L9 8L9 9L6 9L6 10L9 10L9 11L10 11L10 12L9 12L9 13L10 13L10 12L11 12L11 10L10 10L10 9L11 9L11 7L12 7L12 6ZM1 9L1 10L3 10L3 9ZM4 9L4 10L5 10L5 9ZM19 9L19 10L20 10L20 9ZM12 11L12 12L13 12L13 11ZM0 12L0 13L7 13L7 12ZM11 15L11 16L10 16L10 17L9 17L9 18L11 18L11 19L10 19L10 20L12 20L12 18L14 18L14 16L13 16L13 15ZM11 16L11 17L12 17L12 16ZM0 0L0 7L7 7L7 0ZM1 1L1 6L6 6L6 1ZM2 2L2 5L5 5L5 2ZM14 0L14 7L21 7L21 0ZM15 1L15 6L20 6L20 1ZM16 2L16 5L19 5L19 2ZM0 14L0 21L7 21L7 14ZM1 15L1 20L6 20L6 15ZM2 16L2 19L5 19L5 16Z" fill="#000000"/></g></g></svg>
