<?xml version="1.0" encoding="UTF-8"?>
<svg xmlns="http://www.w3.org/2000/svg" version="1.1" width="100" height="100" viewBox="0 0 100 100"><rect x="0" y="0" width="100" height="100" fill="#ffffff"/><g transform="scale(4.762)"><g transform="translate(0,0)"><path fill-rule="evenodd" d="M8 0L8 1L9 1L9 0ZM10 0L10 2L8 2L8 5L9 5L9 6L8 6L8 7L9 7L9 6L10 6L10 7L11 7L11 6L12 6L12 8L8 8L8 9L10 9L10 10L9 10L9 11L7 11L7 10L4 10L4 8L0 8L0 13L3 13L3 12L1 12L1 10L2 10L2 9L3 9L3 10L4 10L4 13L8 13L8 14L9 14L9 13L11 13L11 15L12 15L12 14L13 14L13 11L15 11L15 12L14 12L14 14L15 14L15 16L16 16L16 15L17 15L17 17L16 17L16 18L17 18L17 19L16 19L16 21L19 21L19 20L18 20L18 19L19 19L19 18L20 18L20 16L21 16L21 15L19 15L19 13L21 13L21 12L19 12L19 13L16 13L16 14L15 14L15 12L16 12L16 10L19 10L19 11L21 11L21 8L20 8L20 10L19 10L19 8L16 8L16 9L14 9L14 8L13 8L13 6L12 6L12 5L13 5L13 4L12 4L12 1L13 1L13 0L12 0L12 1L11 1L11 0ZM10 2L10 4L9 4L9 5L11 5L11 2ZM6 8L6 9L7 9L7 8ZM11 9L11 10L10 10L10 12L11 12L11 13L12 13L12 12L11 12L11 11L13 11L13 9ZM6 11L6 12L7 12L7 11ZM17 11L17 12L18 12L18 11ZM17 14L17 15L18 15L18 14ZM13 15L13 16L12 16L12 19L10 19L10 20L9 20L9 17L8 17L8 21L15 21L15 19L14 19L14 18L15 18L15 17L13 17L13 16L14 16L14 15ZM10 16L10 18L11 18L11 16ZM17 17L17 18L19 18L19 17ZM12 19L12 20L13 20L13 19ZM20 19L20 20L21 20L21 19ZM0 0L0 7L7 7L7 0ZM1 1L1 6L6 6L6 1ZM2 2L2 5L5 5L5 2ZM14 0L14 7L21 7L21 0ZM15 1L15 6L20 6L20 1ZM16 2L16 5L19 5L19 2ZM0 14L0 21L7 21L7 14ZM1 15L1 20L6 20L6 15ZM2 16L2 19L5 19L5 16Z" fill="#000000"/></g></g></svg>
